<?xml version="1.0" encoding="utf-8"?>
<!-- Generator: Adobe Illustrator 25.3.1, SVG Export Plug-In . SVG Version: 6.00 Build 0)  -->
<svg version="1.1" id="Layer_2_1_" xmlns="http://www.w3.org/2000/svg" xmlns:xlink="http://www.w3.org/1999/xlink" x="0px" y="0px"
	 viewBox="0 0 200 300" style="enable-background:new 0 0 200 300;" xml:space="preserve">
<style type="text/css">
	.st0{fill:#F7F7F7;}
	.st1{fill:#CCCCCC;}
</style>
<rect class="st0" width="200" height="300"/>
<g>
	<path class="st1" d="M190,150c0-11.9-14.9-23.2-37.8-30.2c5.3-23.3,2.9-41.9-7.4-47.8c-2.4-1.4-5.2-2.1-8.2-2.1v8.2
		c1.7,0,3,0.3,4.2,1c5,2.9,7.2,13.8,5.5,27.8c-0.4,3.4-1.1,7.1-1.9,10.8c-7.2-1.8-15-3.1-23.3-4c-5-6.8-10.1-13-15.3-18.3
		c12-11.1,23.2-17.2,30.8-17.2v-8.2l0,0c-10.1,0-23.3,7.2-36.7,19.7C86.6,77.1,73.4,70,63.3,70v8.2c7.6,0,18.9,6.1,30.8,17.1
		c-5.1,5.4-10.3,11.5-15.2,18.3c-8.3,0.9-16.1,2.2-23.3,4c-0.8-3.7-1.5-7.2-1.9-10.6c-1.7-14,0.4-24.9,5.4-27.8c1.1-0.7,2.5-1,4.2-1
		V70l0,0c-3.1,0-5.9,0.7-8.3,2.1c-10.3,5.9-12.6,24.5-7.3,47.7C24.9,126.9,10,138.1,10,150c0,11.9,14.9,23.2,37.8,30.2
		c-5.3,23.3-2.9,41.9,7.4,47.8c2.4,1.4,5.2,2.1,8.3,2.1c10.1,0,23.3-7.2,36.7-19.7c13.4,12.4,26.6,19.5,36.7,19.5
		c3.1,0,5.9-0.7,8.3-2.1c10.3-5.9,12.6-24.5,7.3-47.7C175.1,173.2,190,161.9,190,150z M142.2,125.5c-1.4,4.7-3,9.6-5,14.5
		c-1.5-2.9-3.1-5.9-4.8-8.8c-1.7-2.9-3.5-5.8-5.3-8.6C132.4,123.4,137.4,124.4,142.2,125.5z M125.4,164.6c-2.9,5-5.8,9.6-8.8,14
		c-5.5,0.5-11,0.7-16.6,0.7c-5.5,0-11.1-0.3-16.5-0.7c-3-4.4-6-9-8.9-13.9c-2.8-4.8-5.3-9.7-7.6-14.6c2.3-4.9,4.8-9.8,7.6-14.6
		c2.9-5,5.8-9.6,8.8-14c5.5-0.5,11-0.7,16.6-0.7c5.5,0,11.1,0.3,16.5,0.7c3,4.4,6,9,8.9,13.9c2.8,4.8,5.3,9.7,7.6,14.6
		C130.7,154.9,128.2,159.8,125.4,164.6z M137.3,159.9c2,4.9,3.7,9.8,5.1,14.6c-4.8,1.2-9.9,2.2-15.1,2.9c1.8-2.8,3.6-5.7,5.3-8.7
		C134.2,165.8,135.8,162.8,137.3,159.9z M100.1,199c-3.4-3.5-6.8-7.4-10.2-11.7c3.3,0.1,6.7,0.3,10.1,0.3c3.4,0,6.9-0.1,10.2-0.3
		C106.9,191.6,103.4,195.5,100.1,199z M72.8,177.4c-5.2-0.8-10.2-1.7-15-2.9c1.4-4.7,3-9.6,5-14.5c1.5,2.9,3.1,5.9,4.8,8.8
		S71,174.6,72.8,177.4z M99.9,101c3.4,3.5,6.8,7.4,10.2,11.7c-3.3-0.1-6.7-0.3-10.1-0.3c-3.4,0-6.9,0.1-10.2,0.3
		C93.1,108.5,96.5,104.6,99.9,101z M72.7,122.6c-1.8,2.8-3.6,5.7-5.3,8.7c-1.7,2.9-3.3,5.9-4.8,8.8c-2-4.9-3.7-9.8-5.1-14.6
		C62.4,124.4,67.5,123.4,72.7,122.6z M39.5,168.6c-13-5.5-21.4-12.8-21.4-18.6c0-5.8,8.4-13.1,21.4-18.6c3.2-1.4,6.6-2.6,10.2-3.7
		c2.1,7.2,4.8,14.7,8.3,22.3c-3.4,7.6-6.1,15.1-8.1,22.2C46.2,171.2,42.7,169.9,39.5,168.6z M59.3,221c-5-2.9-7.2-13.8-5.5-27.8
		c0.4-3.4,1.1-7.1,1.9-10.8c7.2,1.8,15,3.1,23.3,4c5,6.8,10.1,13,15.3,18.3c-12,11.1-23.2,17.2-30.8,17.2
		C61.8,222,60.4,221.6,59.3,221z M146.3,193.1c1.7,14-0.4,24.9-5.4,27.8c-1.1,0.7-2.5,1-4.2,1c-7.6,0-18.9-6.1-30.8-17.1
		c5.1-5.4,10.3-11.5,15.2-18.3c8.3-0.9,16.1-2.2,23.3-4C145.2,186.1,145.9,189.6,146.3,193.1z M160.4,168.6
		c-3.2,1.4-6.6,2.6-10.2,3.7c-2.1-7.2-4.8-14.7-8.3-22.3c3.4-7.6,6.1-15.1,8.1-22.2c3.6,1.1,7.1,2.4,10.3,3.7
		c13,5.5,21.4,12.8,21.4,18.6C181.8,155.8,173.4,163.1,160.4,168.6z"/>
	<path class="st1" d="M63.2,70L63.2,70L63.2,70z"/>
	<circle class="st1" cx="100" cy="150" r="16.8"/>
	<path class="st1" d="M136.5,69.9L136.5,69.9L136.5,69.9z"/>
</g>
</svg>
