<?xml version="1.0" encoding="utf-8"?>
<!-- Generator: Adobe Illustrator 25.3.1, SVG Export Plug-In . SVG Version: 6.00 Build 0)  -->
<svg version="1.1" id="Layer_2_1_" xmlns="http://www.w3.org/2000/svg" xmlns:xlink="http://www.w3.org/1999/xlink" x="0px" y="0px"
	 viewBox="0 0 300 267.2" style="enable-background:new 0 0 300 267.2;" xml:space="preserve">
<style type="text/css">
	.st0{fill:#3BB18F;}
</style>
<g>
	<path class="st0" d="M300,133.6c0-19.9-24.9-38.7-63-50.4c8.8-38.9,4.9-69.8-12.4-79.7c-4-2.3-8.6-3.4-13.7-3.4v13.6
		c2.8,0,5.1,0.6,7,1.6c8.3,4.8,11.9,22.9,9.1,46.3c-0.7,5.7-1.8,11.8-3.1,18c-12-2.9-25.1-5.2-38.8-6.7
		c-8.3-11.3-16.8-21.6-25.4-30.6c19.9-18.5,38.6-28.7,51.4-28.7V0l0,0c-16.8,0-38.8,12-61.1,32.8C127.6,12.1,105.6,0.2,88.8,0.2
		v13.6c12.7,0,31.4,10.1,51.4,28.5c-8.6,9-17.1,19.2-25.3,30.5C101.1,74.4,88,76.6,76,79.6c-1.4-6.1-2.4-12-3.2-17.7
		c-2.9-23.4,0.7-41.5,8.9-46.4c1.8-1.1,4.2-1.6,7-1.6V0.3l0,0C83.7,0.3,79,1.4,75,3.7c-17.2,9.9-21,40.8-12.2,79.6
		C24.8,95,0,113.8,0,133.6c0,19.9,24.9,38.7,63,50.4c-8.8,38.9-4.9,69.8,12.4,79.7c4,2.3,8.6,3.4,13.8,3.4c16.8,0,38.8-12,61.1-32.8
		c22.3,20.7,44.3,32.5,61.1,32.5c5.1,0,9.8-1.1,13.8-3.4c17.2-9.9,21-40.8,12.2-79.6C275.2,172.3,300,153.4,300,133.6z M220.4,92.8
		c-2.3,7.9-5.1,16-8.3,24.2c-2.5-4.9-5.1-9.8-8-14.7c-2.8-4.9-5.8-9.7-8.8-14.3C204,89.3,212.4,90.9,220.4,92.8z M192.4,157.9
		c-4.8,8.3-9.7,16.1-14.7,23.4c-9.1,0.8-18.3,1.2-27.6,1.2c-9.2,0-18.5-0.4-27.5-1.2c-5.1-7.3-10-15-14.8-23.2
		c-4.6-8-8.9-16.1-12.7-24.3c3.8-8.2,8.1-16.4,12.7-24.4c4.8-8.3,9.7-16.1,14.7-23.4c9.1-0.8,18.3-1.2,27.6-1.2
		c9.2,0,18.5,0.4,27.5,1.2c5.1,7.3,10,15,14.8,23.2c4.6,8,8.9,16.1,12.7,24.3C201.2,141.7,197,149.9,192.4,157.9z M212.1,150
		c3.3,8.2,6.1,16.4,8.4,24.3c-8,2-16.4,3.6-25.2,4.9c3-4.7,6-9.5,8.8-14.5C207,159.8,209.6,154.9,212.1,150z M150.1,215.2
		c-5.7-5.9-11.4-12.4-17-19.6c5.5,0.2,11.1,0.4,16.8,0.4c5.7,0,11.4-0.1,17-0.4C161.4,202.8,155.7,209.4,150.1,215.2z M104.6,179.2
		c-8.7-1.3-17.1-2.9-25.1-4.8c2.3-7.9,5.1-16,8.3-24.2c2.5,4.9,5.1,9.8,8,14.7S101.6,174.6,104.6,179.2z M149.8,52
		c5.7,5.9,11.4,12.4,17,19.6c-5.5-0.2-11.1-0.4-16.8-0.4c-5.7,0-11.4,0.1-17,0.4C138.5,64.4,144.2,57.8,149.8,52z M104.6,88
		c-3,4.7-6,9.5-8.8,14.5c-2.8,4.9-5.4,9.8-7.9,14.7c-3.3-8.2-6.1-16.4-8.4-24.3C87.4,90.9,95.8,89.3,104.6,88z M49.2,164.6
		c-21.6-9.2-35.7-21.3-35.7-30.9s14-21.8,35.7-30.9c5.3-2.3,11-4.3,16.9-6.2c3.5,12,8.1,24.5,13.8,37.2
		c-5.6,12.7-10.2,25.1-13.6,37.1C60.3,168.9,54.5,166.8,49.2,164.6z M82.1,251.9c-8.3-4.8-11.9-22.9-9.1-46.3
		c0.7-5.7,1.8-11.8,3.1-18c12,2.9,25.1,5.2,38.8,6.7c8.3,11.3,16.8,21.6,25.4,30.6c-19.9,18.5-38.6,28.7-51.4,28.7
		C86.3,253.5,84,253,82.1,251.9z M227.2,205.3c2.9,23.4-0.7,41.5-8.9,46.4c-1.8,1.1-4.2,1.6-7,1.6c-12.7,0-31.4-10.1-51.4-28.5
		c8.6-9,17.1-19.2,25.3-30.5c13.8-1.5,26.9-3.7,38.9-6.7C225.4,193.7,226.5,199.7,227.2,205.3z M250.7,164.6
		c-5.3,2.3-11,4.3-16.9,6.2c-3.5-12-8.1-24.5-13.8-37.2c5.6-12.7,10.2-25.1,13.6-37.1c6.1,1.9,11.8,4,17.2,6.2
		c21.6,9.2,35.7,21.3,35.7,30.9C286.4,143.2,272.4,155.4,250.7,164.6z"/>
	<path class="st0" d="M88.7,0.2L88.7,0.2L88.7,0.2z"/>
	<circle class="st0" cx="149.9" cy="133.6" r="27.9"/>
	<path class="st0" d="M210.8,0.1L210.8,0.1L210.8,0.1z"/>
</g>
</svg>
